<?xml version="1.0" standalone="no"?>
<!DOCTYPE svg PUBLIC "-//W3C//DTD SVG 20010904//EN"
 "http://www.w3.org/TR/2001/REC-SVG-20010904/DTD/svg10.dtd">
<svg version="1.0" xmlns="http://www.w3.org/2000/svg"
 width="4258.000000pt" height="3957.000000pt" viewBox="0 0 4258.000000 3957.000000"
 preserveAspectRatio="xMidYMid meet">

<g transform="translate(0.000000,3957.000000) scale(0.100000,-0.100000)"
fill="#000000" stroke="none">
<path d="M35215 32330 c-361 -31 -726 -196 -980 -445 -44 -44 -578 -656 -1186
-1360 -608 -704 -4828 -5593 -9379 -10865 -4551 -5272 -8302 -9621 -8336
-9666 -144 -190 -244 -423 -290 -674 -22 -116 -30 -475 -15 -622 41 -387 186
-694 455 -964 275 -274 608 -429 998 -464 158 -14 18879 -14 19038 0 552 49
1029 366 1279 850 355 686 161 1519 -460 1980 -180 133 -373 222 -604 276
-101 24 -133 27 -380 31 -148 2 -2902 8 -6120 12 l-5850 8 -96 21 c-133 30
-236 65 -359 124 -185 87 -311 179 -465 339 -532 554 -586 1415 -126 2013 31
40 3262 3798 7181 8350 3919 4553 7153 8317 7187 8364 127 177 225 413 263
639 29 167 29 580 0 748 -93 546 -463 993 -994 1205 -210 83 -503 122 -761
100z"/>
<path d="M7035 32299 c-703 -73 -1273 -595 -1401 -1284 -28 -149 -26 -452 4
-591 69 -319 203 -567 431 -795 232 -232 476 -365 806 -441 l100 -23 6080 -5
6080 -6 114 -22 c448 -87 813 -330 1054 -702 372 -576 333 -1317 -98 -1835
-27 -33 -3236 -3761 -7130 -8285 -3893 -4524 -7109 -8262 -7145 -8306 -159
-198 -267 -439 -317 -704 -21 -116 -29 -505 -13 -653 40 -365 191 -678 455
-943 223 -224 465 -357 780 -430 105 -24 146 -28 330 -32 181 -3 227 -1 334
17 303 52 591 191 816 395 84 76 -136 -179 10655 12321 4539 5258 8276 9594
8306 9635 114 161 210 382 256 594 21 93 23 127 23 421 0 294 -2 328 -22 418
-158 696 -697 1179 -1405 1256 -118 13 -18969 13 -19093 0z"/>
<path d="M32873 20150 c-566 -55 -1084 -304 -1474 -708 -365 -377 -590 -856
-650 -1381 -15 -137 -7 -504 15 -631 84 -483 297 -908 635 -1263 223 -234 573
-460 886 -573 395 -141 845 -175 1261 -94 443 86 846 299 1178 620 138 134
217 230 327 394 187 281 314 616 366 962 21 144 24 506 4 629 -44 288 -115
519 -226 743 -236 473 -598 834 -1070 1067 -228 112 -459 184 -706 220 -129
19 -424 27 -546 15z"/>
</g>
</svg>
