<svg xmlns="http://www.w3.org/2000/svg" xmlns:v="https://svgstorm.com"
viewBox = "0 0 2128 1203"
width="2128"
height="1203">
<g fill="None" fill-opacity="0.0" stroke="#000000" stroke-opacity="0.00" stroke-width="0.3"><path d="
M 0.00 1203.00 
L 2128.00 1203.00
L 2128.00 0.00
L 0.00 0.00
L 0.00 1203.00
M 2018.00 281.00 
C 2044.61 284.22 2068.71 309.60 2054.68 338.68 C 2040.65 367.75 2006.69 362.56 1978.00 364.00 C 1949.31 365.44 1909.16 357.59 1882.93 370.93 C 1856.69 384.26 1849.39 409.19 1849.00 439.00 C 1848.61 468.81 1849.15 509.24 1849.00 541.00 C 1848.85 572.76 1849.01 609.65 1849.00 642.00 C 1848.99 674.35 1848.87 712.04 1849.00 744.00 C 1849.13 775.96 1848.64 815.79 1849.00 846.00 C 1849.36 876.21 1853.24 910.97 1829.75 928.75 C 1806.27 946.54 1771.55 933.37 1766.67 904.33 C 1761.79 875.28 1766.16 835.77 1765.00 804.00 C 1763.84 772.23 1765.61 735.67 1765.00 703.00 C 1764.39 670.33 1765.48 633.77 1765.00 601.00 C 1764.52 568.23 1765.66 531.05 1765.00 499.00 C 1764.34 466.95 1768.40 432.11 1758.07 403.93 C 1747.75 375.74 1725.90 363.68 1696.00 364.00 C 1666.10 364.32 1624.61 362.79 1594.00 364.00 C 1563.39 365.21 1537.55 349.65 1542.33 315.33 C 1547.12 281.01 1578.45 279.21 1610.00 281.00 C 1641.55 282.79 1679.15 279.90 1712.00 281.00 C 1744.85 282.10 1780.61 279.86 1814.00 281.00 C 1847.39 282.14 1882.48 279.06 1916.00 281.00 C 1949.52 282.94 1984.67 276.97 2018.00 281.00
M 863.00 282.00 
C 891.12 284.16 909.78 317.14 900.07 342.07 C 890.37 367.01 871.06 378.97 856.08 399.08 C 841.10 419.19 824.29 434.11 809.25 453.25 C 794.21 472.38 777.72 488.77 762.25 507.25 C 746.78 525.73 731.60 543.68 715.75 561.75 C 699.90 579.83 684.87 598.11 669.23 616.23 C 653.59 634.35 637.77 652.10 622.25 670.25 C 606.73 688.40 591.53 706.57 575.25 724.25 C 558.96 741.92 546.31 761.84 528.75 778.75 C 511.20 795.66 503.05 830.67 529.70 845.30 C 556.35 859.94 591.86 851.61 623.00 853.00 C 654.14 854.39 692.75 852.92 724.00 853.00 C 755.25 853.08 795.26 854.16 825.00 853.00 C 854.74 851.84 888.46 850.92 898.98 880.03 C 909.49 909.13 890.54 935.48 860.00 936.00 C 829.46 936.52 790.16 935.86 758.00 936.00 C 725.84 936.14 689.69 936.15 657.00 936.00 C 624.31 935.85 588.58 936.54 556.00 936.00 C 523.42 935.46 486.74 937.29 455.00 936.00 C 423.26 934.71 385.01 939.79 355.98 934.02 C 326.94 928.26 321.85 885.56 335.31 866.31 C 348.76 847.05 367.03 830.31 381.77 811.77 C 396.51 793.23 413.84 776.23 428.75 757.75 C 443.66 739.27 460.27 721.94 475.75 703.75 C 491.24 685.56 506.56 667.40 522.25 649.25 C 537.94 631.09 553.50 613.68 569.25 595.25 C 585.00 576.82 600.45 559.05 616.10 541.10 C 631.75 523.15 647.13 504.64 662.75 486.75 C 678.38 468.87 694.11 450.79 709.75 432.75 C 725.40 414.72 740.48 396.37 756.30 378.30 C 772.12 360.24 787.31 342.46 803.25 324.25 C 819.18 306.03 835.06 279.85 863.00 282.00
M 1050.00 282.00 
C 1067.85 284.90 1079.49 300.86 1088.75 315.25 C 1098.02 329.63 1108.36 343.70 1117.92 358.08 C 1127.48 372.46 1138.06 386.87 1147.75 401.25 C 1157.45 415.62 1167.01 429.80 1176.92 444.08 C 1186.83 458.36 1196.71 473.23 1206.31 487.70 C 1215.90 502.16 1226.56 515.51 1235.75 530.25 C 1244.95 544.99 1256.30 558.56 1265.75 573.25 C 1275.20 587.94 1284.98 601.57 1294.75 616.25 C 1304.53 630.92 1314.43 643.83 1323.77 659.23 C 1333.11 674.63 1344.99 685.61 1353.75 702.25 C 1362.52 718.88 1391.06 724.23 1391.00 699.00 C 1390.94 673.77 1391.03 650.56 1391.00 626.00 C 1390.97 601.44 1391.01 578.13 1391.00 554.00 C 1390.99 529.87 1391.01 504.68 1391.00 481.00 C 1390.99 457.32 1391.02 431.88 1391.00 409.00 C 1390.98 386.12 1391.04 358.33 1391.00 337.00 C 1390.96 315.67 1393.75 295.24 1412.68 285.68 C 1431.61 276.12 1450.20 283.78 1463.30 299.70 C 1476.39 315.62 1474.35 339.92 1474.00 362.00 C 1473.65 384.08 1474.15 410.78 1474.00 434.00 C 1473.85 457.22 1474.05 483.32 1474.00 507.00 C 1473.95 530.68 1473.99 555.16 1474.00 579.00 C 1474.01 602.84 1473.92 627.12 1474.00 651.00 C 1474.08 674.88 1473.80 700.27 1474.00 724.00 C 1474.20 747.73 1473.53 772.72 1474.00 796.00 C 1474.47 819.28 1472.97 846.74 1474.00 869.00 C 1475.03 891.26 1473.53 910.65 1458.25 925.25 C 1442.97 939.85 1419.09 940.19 1402.31 931.70 C 1385.52 923.20 1379.90 906.58 1369.23 892.77 C 1358.56 878.96 1350.32 863.95 1340.23 849.77 C 1330.14 835.59 1320.17 821.06 1310.23 806.77 C 1300.29 792.48 1291.18 778.08 1281.23 763.77 C 1271.28 749.46 1261.26 734.86 1251.70 720.30 C 1242.13 705.75 1231.65 692.48 1222.08 677.92 C 1212.51 663.35 1202.21 648.97 1192.70 634.30 C 1183.19 619.64 1172.51 606.76 1163.25 591.75 C 1153.98 576.74 1143.17 564.51 1134.08 548.92 C 1124.99 533.33 1112.65 522.73 1104.25 505.75 C 1095.84 488.78 1065.17 484.64 1066.00 510.00 C 1066.83 535.36 1065.62 558.38 1066.00 583.00 C 1066.38 607.62 1065.83 630.84 1066.00 655.00 C 1066.17 679.16 1065.92 704.29 1066.00 728.00 C 1066.08 751.71 1065.97 777.07 1066.00 800.00 C 1066.03 822.94 1065.98 850.55 1066.00 872.00 C 1066.02 893.45 1066.74 916.06 1050.75 929.75 C 1034.76 943.45 1013.68 938.30 998.25 924.75 C 982.83 911.19 982.04 888.66 983.00 867.00 C 983.96 845.34 982.57 818.03 983.00 795.00 C 983.43 771.97 982.81 745.60 983.00 722.00 C 983.19 698.40 982.92 673.82 983.00 650.00 C 983.08 626.19 982.99 601.90 983.00 578.00 C 983.01 554.10 983.04 528.81 983.00 505.00 C 982.96 481.19 983.13 456.47 983.00 433.00 C 982.87 409.53 983.29 382.69 983.00 360.00 C 982.71 337.31 980.41 316.10 994.25 299.25 C 1008.09 282.40 1028.66 278.53 1050.00 282.00
M 621.00 283.00 
C 644.36 286.34 659.75 311.25 656.67 333.67 C 653.59 356.09 635.24 369.80 622.08 386.08 C 608.92 402.37 594.52 417.06 581.25 433.25 C 567.98 449.44 554.25 463.92 540.75 479.75 C 527.25 495.58 513.82 511.57 500.23 527.23 C 486.64 542.89 473.34 558.16 459.75 573.75 C 446.17 589.34 433.17 605.05 419.70 620.70 C 406.22 636.34 392.12 651.86 378.75 667.75 C 365.39 683.65 351.83 698.54 338.25 714.25 C 324.66 729.96 311.47 745.67 297.75 761.75 C 284.03 777.82 270.71 792.21 257.25 808.25 C 243.78 824.28 230.53 838.61 216.75 854.75 C 202.97 870.89 190.32 885.58 176.23 902.23 C 162.14 918.88 148.67 937.87 124.00 937.00 C 99.33 936.13 81.49 913.87 83.00 890.00 C 84.51 866.13 101.98 852.78 115.77 835.77 C 129.56 818.76 142.97 805.67 156.25 789.25 C 169.53 772.82 183.68 758.28 197.25 742.25 C 210.81 726.22 223.46 710.71 237.25 695.25 C 251.03 679.79 264.30 663.51 277.75 647.75 C 291.21 632.00 305.30 616.91 318.30 601.30 C 331.30 585.68 345.50 570.42 358.75 554.75 C 372.01 539.08 385.88 522.98 399.25 507.25 C 412.62 491.52 426.43 477.12 439.25 460.25 C 452.08 443.38 474.63 430.04 473.00 406.00 C 471.37 381.96 452.18 364.42 426.00 366.00 C 399.82 367.58 366.31 365.26 339.00 366.00 C 311.69 366.74 278.18 365.57 251.00 366.00 C 223.82 366.43 189.70 365.61 164.00 366.00 C 138.30 366.39 107.17 370.45 91.75 350.25 C 76.33 330.04 81.25 302.53 102.75 289.75 C 124.24 276.96 156.26 284.36 183.00 283.00 C 209.74 281.64 242.96 283.49 271.00 283.00 C 299.04 282.51 329.38 282.91 358.00 283.00 C 386.62 283.09 417.17 282.30 446.00 283.00 C 474.83 283.70 504.19 281.19 533.00 283.00 C 561.81 284.81 592.45 278.92 621.00 283.00
M 805.00 599.00 
C 850.90 603.44 877.31 658.20 851.08 696.08 C 824.85 733.96 767.79 731.28 745.23 690.77 C 722.67 650.26 756.71 594.33 805.00 599.00 Z"/>
</g>
<g fill="None" fill-opacity="0.0" stroke="#7E00F0" stroke-opacity="0.98" stroke-width="0.3"><path d="
M 2018.00 281.00 
C 1984.67 276.97 1949.52 282.94 1916.00 281.00 C 1882.48 279.06 1847.39 282.14 1814.00 281.00 C 1780.61 279.86 1744.85 282.10 1712.00 281.00 C 1679.15 279.90 1641.55 282.79 1610.00 281.00 C 1578.45 279.21 1547.12 281.01 1542.33 315.33 C 1537.55 349.65 1563.39 365.21 1594.00 364.00 C 1624.61 362.79 1666.10 364.32 1696.00 364.00 C 1725.90 363.68 1747.75 375.74 1758.07 403.93 C 1768.40 432.11 1764.34 466.95 1765.00 499.00 C 1765.66 531.05 1764.52 568.23 1765.00 601.00 C 1765.48 633.77 1764.39 670.33 1765.00 703.00 C 1765.61 735.67 1763.84 772.23 1765.00 804.00 C 1766.16 835.77 1761.79 875.28 1766.67 904.33 C 1771.55 933.37 1806.27 946.54 1829.75 928.75 C 1853.24 910.97 1849.36 876.21 1849.00 846.00 C 1848.64 815.79 1849.13 775.96 1849.00 744.00 C 1848.87 712.04 1848.99 674.35 1849.00 642.00 C 1849.01 609.65 1848.85 572.76 1849.00 541.00 C 1849.15 509.24 1848.61 468.81 1849.00 439.00 C 1849.39 409.19 1856.69 384.26 1882.93 370.93 C 1909.16 357.59 1949.31 365.44 1978.00 364.00 C 2006.69 362.56 2040.65 367.75 2054.68 338.68 C 2068.71 309.60 2044.61 284.22 2018.00 281.00 Z"/>
</g>
<g fill="None" fill-opacity="0.0" stroke="#7F00F0" stroke-opacity="0.99" stroke-width="0.3"><path d="
M 863.00 282.00 
C 835.06 279.85 819.18 306.03 803.25 324.25 C 787.31 342.46 772.12 360.24 756.30 378.30 C 740.48 396.37 725.40 414.72 709.75 432.75 C 694.11 450.79 678.38 468.87 662.75 486.75 C 647.13 504.64 631.75 523.15 616.10 541.10 C 600.45 559.05 585.00 576.82 569.25 595.25 C 553.50 613.68 537.94 631.09 522.25 649.25 C 506.56 667.40 491.24 685.56 475.75 703.75 C 460.27 721.94 443.66 739.27 428.75 757.75 C 413.84 776.23 396.51 793.23 381.77 811.77 C 367.03 830.31 348.76 847.05 335.31 866.31 C 321.85 885.56 326.94 928.26 355.98 934.02 C 385.01 939.79 423.26 934.71 455.00 936.00 C 486.74 937.29 523.42 935.46 556.00 936.00 C 588.58 936.54 624.31 935.85 657.00 936.00 C 689.69 936.15 725.84 936.14 758.00 936.00 C 790.16 935.86 829.46 936.52 860.00 936.00 C 890.54 935.48 909.49 909.13 898.98 880.03 C 888.46 850.92 854.74 851.84 825.00 853.00 C 795.26 854.16 755.25 853.08 724.00 853.00 C 692.75 852.92 654.14 854.39 623.00 853.00 C 591.86 851.61 556.35 859.94 529.70 845.30 C 503.05 830.67 511.20 795.66 528.75 778.75 C 546.31 761.84 558.96 741.92 575.25 724.25 C 591.53 706.57 606.73 688.40 622.25 670.25 C 637.77 652.10 653.59 634.35 669.23 616.23 C 684.87 598.11 699.90 579.83 715.75 561.75 C 731.60 543.68 746.78 525.73 762.25 507.25 C 777.72 488.77 794.21 472.38 809.25 453.25 C 824.29 434.11 841.10 419.19 856.08 399.08 C 871.06 378.97 890.37 367.01 900.07 342.07 C 909.78 317.14 891.12 284.16 863.00 282.00 Z"/>
</g>
<g fill="None" fill-opacity="0.0" stroke="#7F00F0" stroke-opacity="0.99" stroke-width="0.3"><path d="
M 1050.00 282.00 
C 1028.66 278.53 1008.09 282.40 994.25 299.25 C 980.41 316.10 982.71 337.31 983.00 360.00 C 983.29 382.69 982.87 409.53 983.00 433.00 C 983.13 456.47 982.96 481.19 983.00 505.00 C 983.04 528.81 983.01 554.10 983.00 578.00 C 982.99 601.90 983.08 626.19 983.00 650.00 C 982.92 673.82 983.19 698.40 983.00 722.00 C 982.81 745.60 983.43 771.97 983.00 795.00 C 982.57 818.03 983.96 845.34 983.00 867.00 C 982.04 888.66 982.83 911.19 998.25 924.75 C 1013.68 938.30 1034.76 943.45 1050.75 929.75 C 1066.74 916.06 1066.02 893.45 1066.00 872.00 C 1065.98 850.55 1066.03 822.94 1066.00 800.00 C 1065.97 777.07 1066.08 751.71 1066.00 728.00 C 1065.92 704.29 1066.17 679.16 1066.00 655.00 C 1065.83 630.84 1066.38 607.62 1066.00 583.00 C 1065.62 558.38 1066.83 535.36 1066.00 510.00 C 1065.17 484.64 1095.84 488.78 1104.25 505.75 C 1112.65 522.73 1124.99 533.33 1134.08 548.92 C 1143.17 564.51 1153.98 576.74 1163.25 591.75 C 1172.51 606.76 1183.19 619.64 1192.70 634.30 C 1202.21 648.97 1212.51 663.35 1222.08 677.92 C 1231.65 692.48 1242.13 705.75 1251.70 720.30 C 1261.26 734.86 1271.28 749.46 1281.23 763.77 C 1291.18 778.08 1300.29 792.48 1310.23 806.77 C 1320.17 821.06 1330.14 835.59 1340.23 849.77 C 1350.32 863.95 1358.56 878.96 1369.23 892.77 C 1379.90 906.58 1385.52 923.20 1402.31 931.70 C 1419.09 940.19 1442.97 939.85 1458.25 925.25 C 1473.53 910.65 1475.03 891.26 1474.00 869.00 C 1472.97 846.74 1474.47 819.28 1474.00 796.00 C 1473.53 772.72 1474.20 747.73 1474.00 724.00 C 1473.80 700.27 1474.08 674.88 1474.00 651.00 C 1473.92 627.12 1474.01 602.84 1474.00 579.00 C 1473.99 555.16 1473.95 530.68 1474.00 507.00 C 1474.05 483.32 1473.85 457.22 1474.00 434.00 C 1474.15 410.78 1473.65 384.08 1474.00 362.00 C 1474.35 339.92 1476.39 315.62 1463.30 299.70 C 1450.20 283.78 1431.61 276.12 1412.68 285.68 C 1393.75 295.24 1390.96 315.67 1391.00 337.00 C 1391.04 358.33 1390.98 386.12 1391.00 409.00 C 1391.02 431.88 1390.99 457.32 1391.00 481.00 C 1391.01 504.68 1390.99 529.87 1391.00 554.00 C 1391.01 578.13 1390.97 601.44 1391.00 626.00 C 1391.03 650.56 1390.94 673.77 1391.00 699.00 C 1391.06 724.23 1362.52 718.88 1353.75 702.25 C 1344.99 685.61 1333.11 674.63 1323.77 659.23 C 1314.43 643.83 1304.53 630.92 1294.75 616.25 C 1284.98 601.57 1275.20 587.94 1265.75 573.25 C 1256.30 558.56 1244.95 544.99 1235.75 530.25 C 1226.56 515.51 1215.90 502.16 1206.31 487.70 C 1196.71 473.23 1186.83 458.36 1176.92 444.08 C 1167.01 429.80 1157.45 415.62 1147.75 401.25 C 1138.06 386.87 1127.48 372.46 1117.92 358.08 C 1108.36 343.70 1098.02 329.63 1088.75 315.25 C 1079.49 300.86 1067.85 284.90 1050.00 282.00 Z"/>
</g>
<g fill="None" fill-opacity="0.0" stroke="#7F00F0" stroke-opacity="0.99" stroke-width="0.3"><path d="
M 621.00 283.00 
C 592.45 278.92 561.81 284.81 533.00 283.00 C 504.19 281.19 474.83 283.70 446.00 283.00 C 417.17 282.30 386.62 283.09 358.00 283.00 C 329.38 282.91 299.04 282.51 271.00 283.00 C 242.96 283.49 209.74 281.64 183.00 283.00 C 156.26 284.36 124.24 276.96 102.75 289.75 C 81.25 302.53 76.33 330.04 91.75 350.25 C 107.17 370.45 138.30 366.39 164.00 366.00 C 189.70 365.61 223.82 366.43 251.00 366.00 C 278.18 365.57 311.69 366.74 339.00 366.00 C 366.31 365.26 399.82 367.58 426.00 366.00 C 452.18 364.42 471.37 381.96 473.00 406.00 C 474.63 430.04 452.08 443.38 439.25 460.25 C 426.43 477.12 412.62 491.52 399.25 507.25 C 385.88 522.98 372.01 539.08 358.75 554.75 C 345.50 570.42 331.30 585.68 318.30 601.30 C 305.30 616.91 291.21 632.00 277.75 647.75 C 264.30 663.51 251.03 679.79 237.25 695.25 C 223.46 710.71 210.81 726.22 197.25 742.25 C 183.68 758.28 169.53 772.82 156.25 789.25 C 142.97 805.67 129.56 818.76 115.77 835.77 C 101.98 852.78 84.51 866.13 83.00 890.00 C 81.49 913.87 99.33 936.13 124.00 937.00 C 148.67 937.87 162.14 918.88 176.23 902.23 C 190.32 885.58 202.97 870.89 216.75 854.75 C 230.53 838.61 243.78 824.28 257.25 808.25 C 270.71 792.21 284.03 777.82 297.75 761.75 C 311.47 745.67 324.66 729.96 338.25 714.25 C 351.83 698.54 365.39 683.65 378.75 667.75 C 392.12 651.86 406.22 636.34 419.70 620.70 C 433.17 605.05 446.17 589.34 459.75 573.75 C 473.34 558.16 486.64 542.89 500.23 527.23 C 513.82 511.57 527.25 495.58 540.75 479.75 C 554.25 463.92 567.98 449.44 581.25 433.25 C 594.52 417.06 608.92 402.37 622.08 386.08 C 635.24 369.80 653.59 356.09 656.67 333.67 C 659.75 311.25 644.36 286.34 621.00 283.00 Z"/>
</g>
<g fill="None" fill-opacity="0.0" stroke="#7E00F0" stroke-opacity="0.98" stroke-width="0.3"><path d="
M 805.00 599.00 
C 756.71 594.33 722.67 650.26 745.23 690.77 C 767.79 731.28 824.85 733.96 851.08 696.08 C 877.31 658.20 850.90 603.44 805.00 599.00 Z"/>
</g>
<g fill="#000000" fill-opacity="0.00" stroke="None">
<path d="
M 0.00 1203.00 
L 2128.00 1203.00
L 2128.00 0.00
L 0.00 0.00
L 0.00 1203.00
M 2018.00 281.00 
C 2044.61 284.22 2068.71 309.60 2054.68 338.68 C 2040.65 367.75 2006.69 362.56 1978.00 364.00 C 1949.31 365.44 1909.16 357.59 1882.93 370.93 C 1856.69 384.26 1849.39 409.19 1849.00 439.00 C 1848.61 468.81 1849.15 509.24 1849.00 541.00 C 1848.85 572.76 1849.01 609.65 1849.00 642.00 C 1848.99 674.35 1848.87 712.04 1849.00 744.00 C 1849.13 775.96 1848.64 815.79 1849.00 846.00 C 1849.36 876.21 1853.24 910.97 1829.75 928.75 C 1806.27 946.54 1771.55 933.37 1766.67 904.33 C 1761.79 875.28 1766.16 835.77 1765.00 804.00 C 1763.84 772.23 1765.61 735.67 1765.00 703.00 C 1764.39 670.33 1765.48 633.77 1765.00 601.00 C 1764.52 568.23 1765.66 531.05 1765.00 499.00 C 1764.34 466.95 1768.40 432.11 1758.07 403.93 C 1747.75 375.74 1725.90 363.68 1696.00 364.00 C 1666.10 364.32 1624.61 362.79 1594.00 364.00 C 1563.39 365.21 1537.55 349.65 1542.33 315.33 C 1547.12 281.01 1578.45 279.21 1610.00 281.00 C 1641.55 282.79 1679.15 279.90 1712.00 281.00 C 1744.85 282.10 1780.61 279.86 1814.00 281.00 C 1847.39 282.14 1882.48 279.06 1916.00 281.00 C 1949.52 282.94 1984.67 276.97 2018.00 281.00
M 863.00 282.00 
C 891.12 284.16 909.78 317.14 900.07 342.07 C 890.37 367.01 871.06 378.97 856.08 399.08 C 841.10 419.19 824.29 434.11 809.25 453.25 C 794.21 472.38 777.72 488.77 762.25 507.25 C 746.78 525.73 731.60 543.68 715.75 561.75 C 699.90 579.83 684.87 598.11 669.23 616.23 C 653.59 634.35 637.77 652.10 622.25 670.25 C 606.73 688.40 591.53 706.57 575.25 724.25 C 558.96 741.92 546.31 761.84 528.75 778.75 C 511.20 795.66 503.05 830.67 529.70 845.30 C 556.35 859.94 591.86 851.61 623.00 853.00 C 654.14 854.39 692.75 852.92 724.00 853.00 C 755.25 853.08 795.26 854.16 825.00 853.00 C 854.74 851.84 888.46 850.92 898.98 880.03 C 909.49 909.13 890.54 935.48 860.00 936.00 C 829.46 936.52 790.16 935.86 758.00 936.00 C 725.84 936.14 689.69 936.15 657.00 936.00 C 624.31 935.85 588.58 936.54 556.00 936.00 C 523.42 935.46 486.74 937.29 455.00 936.00 C 423.26 934.71 385.01 939.79 355.98 934.02 C 326.94 928.26 321.85 885.56 335.31 866.31 C 348.76 847.05 367.03 830.31 381.77 811.77 C 396.51 793.23 413.84 776.23 428.75 757.75 C 443.66 739.27 460.27 721.94 475.75 703.75 C 491.24 685.56 506.56 667.40 522.25 649.25 C 537.94 631.09 553.50 613.68 569.25 595.25 C 585.00 576.82 600.45 559.05 616.10 541.10 C 631.75 523.15 647.13 504.64 662.75 486.75 C 678.38 468.87 694.11 450.79 709.75 432.75 C 725.40 414.72 740.48 396.37 756.30 378.30 C 772.12 360.24 787.31 342.46 803.25 324.25 C 819.18 306.03 835.06 279.85 863.00 282.00
M 1050.00 282.00 
C 1067.85 284.90 1079.49 300.86 1088.75 315.25 C 1098.02 329.63 1108.36 343.70 1117.92 358.08 C 1127.48 372.46 1138.06 386.87 1147.75 401.25 C 1157.45 415.62 1167.01 429.80 1176.92 444.08 C 1186.83 458.36 1196.71 473.23 1206.31 487.70 C 1215.90 502.16 1226.56 515.51 1235.75 530.25 C 1244.95 544.99 1256.30 558.56 1265.75 573.25 C 1275.20 587.94 1284.98 601.57 1294.75 616.25 C 1304.53 630.92 1314.43 643.83 1323.77 659.23 C 1333.11 674.63 1344.99 685.61 1353.75 702.25 C 1362.52 718.88 1391.06 724.23 1391.00 699.00 C 1390.94 673.77 1391.03 650.56 1391.00 626.00 C 1390.97 601.44 1391.01 578.13 1391.00 554.00 C 1390.99 529.87 1391.01 504.68 1391.00 481.00 C 1390.99 457.32 1391.02 431.88 1391.00 409.00 C 1390.98 386.12 1391.04 358.33 1391.00 337.00 C 1390.96 315.67 1393.75 295.24 1412.68 285.68 C 1431.61 276.12 1450.20 283.78 1463.30 299.70 C 1476.39 315.62 1474.35 339.92 1474.00 362.00 C 1473.65 384.08 1474.15 410.78 1474.00 434.00 C 1473.85 457.22 1474.05 483.32 1474.00 507.00 C 1473.95 530.68 1473.99 555.16 1474.00 579.00 C 1474.01 602.84 1473.92 627.12 1474.00 651.00 C 1474.08 674.88 1473.80 700.27 1474.00 724.00 C 1474.20 747.73 1473.53 772.72 1474.00 796.00 C 1474.47 819.28 1472.97 846.74 1474.00 869.00 C 1475.03 891.26 1473.53 910.65 1458.25 925.25 C 1442.97 939.85 1419.09 940.19 1402.31 931.70 C 1385.52 923.20 1379.90 906.58 1369.23 892.77 C 1358.56 878.96 1350.32 863.95 1340.23 849.77 C 1330.14 835.59 1320.17 821.06 1310.23 806.77 C 1300.29 792.48 1291.18 778.08 1281.23 763.77 C 1271.28 749.46 1261.26 734.86 1251.70 720.30 C 1242.13 705.75 1231.65 692.48 1222.08 677.92 C 1212.51 663.35 1202.21 648.97 1192.70 634.30 C 1183.19 619.64 1172.51 606.76 1163.25 591.75 C 1153.98 576.74 1143.17 564.51 1134.08 548.92 C 1124.99 533.33 1112.65 522.73 1104.25 505.75 C 1095.84 488.78 1065.17 484.64 1066.00 510.00 C 1066.83 535.36 1065.62 558.38 1066.00 583.00 C 1066.38 607.62 1065.83 630.84 1066.00 655.00 C 1066.17 679.16 1065.92 704.29 1066.00 728.00 C 1066.08 751.71 1065.97 777.07 1066.00 800.00 C 1066.03 822.94 1065.98 850.55 1066.00 872.00 C 1066.02 893.45 1066.74 916.06 1050.75 929.75 C 1034.76 943.45 1013.68 938.30 998.25 924.75 C 982.83 911.19 982.04 888.66 983.00 867.00 C 983.96 845.34 982.57 818.03 983.00 795.00 C 983.43 771.97 982.81 745.60 983.00 722.00 C 983.19 698.40 982.92 673.82 983.00 650.00 C 983.08 626.19 982.99 601.90 983.00 578.00 C 983.01 554.10 983.04 528.81 983.00 505.00 C 982.96 481.19 983.13 456.47 983.00 433.00 C 982.87 409.53 983.29 382.69 983.00 360.00 C 982.71 337.31 980.41 316.10 994.25 299.25 C 1008.09 282.40 1028.66 278.53 1050.00 282.00
M 621.00 283.00 
C 644.36 286.34 659.75 311.25 656.67 333.67 C 653.59 356.09 635.24 369.80 622.08 386.08 C 608.92 402.37 594.52 417.06 581.25 433.25 C 567.98 449.44 554.25 463.92 540.75 479.75 C 527.25 495.58 513.82 511.57 500.23 527.23 C 486.64 542.89 473.34 558.16 459.75 573.75 C 446.17 589.34 433.17 605.05 419.70 620.70 C 406.22 636.34 392.12 651.86 378.75 667.75 C 365.39 683.65 351.83 698.54 338.25 714.25 C 324.66 729.96 311.47 745.67 297.75 761.75 C 284.03 777.82 270.71 792.21 257.25 808.25 C 243.78 824.28 230.53 838.61 216.75 854.75 C 202.97 870.89 190.32 885.58 176.23 902.23 C 162.14 918.88 148.67 937.87 124.00 937.00 C 99.33 936.13 81.49 913.87 83.00 890.00 C 84.51 866.13 101.98 852.78 115.77 835.77 C 129.56 818.76 142.97 805.67 156.25 789.25 C 169.53 772.82 183.68 758.28 197.25 742.25 C 210.81 726.22 223.46 710.71 237.25 695.25 C 251.03 679.79 264.30 663.51 277.75 647.75 C 291.21 632.00 305.30 616.91 318.30 601.30 C 331.30 585.68 345.50 570.42 358.75 554.75 C 372.01 539.08 385.88 522.98 399.25 507.25 C 412.62 491.52 426.43 477.12 439.25 460.25 C 452.08 443.38 474.63 430.04 473.00 406.00 C 471.37 381.96 452.18 364.42 426.00 366.00 C 399.82 367.58 366.31 365.26 339.00 366.00 C 311.69 366.74 278.18 365.57 251.00 366.00 C 223.82 366.43 189.70 365.61 164.00 366.00 C 138.30 366.39 107.17 370.45 91.75 350.25 C 76.33 330.04 81.25 302.53 102.75 289.75 C 124.24 276.96 156.26 284.36 183.00 283.00 C 209.74 281.64 242.96 283.49 271.00 283.00 C 299.04 282.51 329.38 282.91 358.00 283.00 C 386.62 283.09 417.17 282.30 446.00 283.00 C 474.83 283.70 504.19 281.19 533.00 283.00 C 561.81 284.81 592.45 278.92 621.00 283.00
M 805.00 599.00 
C 850.90 603.44 877.31 658.20 851.08 696.08 C 824.85 733.96 767.79 731.28 745.23 690.77 C 722.67 650.26 756.71 594.33 805.00 599.00 Z"/>
</g>
<g fill="#7E00F0" fill-opacity="0.98" stroke="None">
<path d="
M 2018.00 281.00 
C 1984.67 276.97 1949.52 282.94 1916.00 281.00 C 1882.48 279.06 1847.39 282.14 1814.00 281.00 C 1780.61 279.86 1744.85 282.10 1712.00 281.00 C 1679.15 279.90 1641.55 282.79 1610.00 281.00 C 1578.45 279.21 1547.12 281.01 1542.33 315.33 C 1537.55 349.65 1563.39 365.21 1594.00 364.00 C 1624.61 362.79 1666.10 364.32 1696.00 364.00 C 1725.90 363.68 1747.75 375.74 1758.07 403.93 C 1768.40 432.11 1764.34 466.95 1765.00 499.00 C 1765.66 531.05 1764.52 568.23 1765.00 601.00 C 1765.48 633.77 1764.39 670.33 1765.00 703.00 C 1765.61 735.67 1763.84 772.23 1765.00 804.00 C 1766.16 835.77 1761.79 875.28 1766.67 904.33 C 1771.55 933.37 1806.27 946.54 1829.75 928.75 C 1853.24 910.97 1849.36 876.21 1849.00 846.00 C 1848.64 815.79 1849.13 775.96 1849.00 744.00 C 1848.87 712.04 1848.99 674.35 1849.00 642.00 C 1849.01 609.65 1848.85 572.76 1849.00 541.00 C 1849.15 509.24 1848.61 468.81 1849.00 439.00 C 1849.39 409.19 1856.69 384.26 1882.93 370.93 C 1909.16 357.59 1949.31 365.44 1978.00 364.00 C 2006.69 362.56 2040.65 367.75 2054.68 338.68 C 2068.71 309.60 2044.61 284.22 2018.00 281.00 Z"/>
</g>
<g fill="#7F00F0" fill-opacity="0.99" stroke="None">
<path d="
M 863.00 282.00 
C 835.06 279.85 819.18 306.03 803.25 324.25 C 787.31 342.46 772.12 360.24 756.30 378.30 C 740.48 396.37 725.40 414.72 709.75 432.75 C 694.11 450.79 678.38 468.87 662.75 486.75 C 647.13 504.64 631.75 523.15 616.10 541.10 C 600.45 559.05 585.00 576.82 569.25 595.25 C 553.50 613.68 537.94 631.09 522.25 649.25 C 506.56 667.40 491.24 685.56 475.75 703.75 C 460.27 721.94 443.66 739.27 428.75 757.75 C 413.84 776.23 396.51 793.23 381.77 811.77 C 367.03 830.31 348.76 847.05 335.31 866.31 C 321.85 885.56 326.94 928.26 355.98 934.02 C 385.01 939.79 423.26 934.71 455.00 936.00 C 486.74 937.29 523.42 935.46 556.00 936.00 C 588.58 936.54 624.31 935.85 657.00 936.00 C 689.69 936.15 725.84 936.14 758.00 936.00 C 790.16 935.86 829.46 936.52 860.00 936.00 C 890.54 935.48 909.49 909.13 898.98 880.03 C 888.46 850.92 854.74 851.84 825.00 853.00 C 795.26 854.16 755.25 853.08 724.00 853.00 C 692.75 852.92 654.14 854.39 623.00 853.00 C 591.86 851.61 556.35 859.94 529.70 845.30 C 503.05 830.67 511.20 795.66 528.75 778.75 C 546.31 761.84 558.96 741.92 575.25 724.25 C 591.53 706.57 606.73 688.40 622.25 670.25 C 637.77 652.10 653.59 634.35 669.23 616.23 C 684.87 598.11 699.90 579.83 715.75 561.75 C 731.60 543.68 746.78 525.73 762.25 507.25 C 777.72 488.77 794.21 472.38 809.25 453.25 C 824.29 434.11 841.10 419.19 856.08 399.08 C 871.06 378.97 890.37 367.01 900.07 342.07 C 909.78 317.14 891.12 284.16 863.00 282.00 Z"/>
</g>
<g fill="#7F00F0" fill-opacity="0.99" stroke="None">
<path d="
M 1050.00 282.00 
C 1028.66 278.53 1008.09 282.40 994.25 299.25 C 980.41 316.10 982.71 337.31 983.00 360.00 C 983.29 382.69 982.87 409.53 983.00 433.00 C 983.13 456.47 982.96 481.19 983.00 505.00 C 983.04 528.81 983.01 554.10 983.00 578.00 C 982.99 601.90 983.08 626.19 983.00 650.00 C 982.92 673.82 983.19 698.40 983.00 722.00 C 982.81 745.60 983.43 771.97 983.00 795.00 C 982.57 818.03 983.96 845.34 983.00 867.00 C 982.04 888.66 982.83 911.19 998.25 924.75 C 1013.68 938.30 1034.76 943.45 1050.75 929.75 C 1066.74 916.06 1066.02 893.45 1066.00 872.00 C 1065.98 850.55 1066.03 822.94 1066.00 800.00 C 1065.97 777.07 1066.08 751.71 1066.00 728.00 C 1065.92 704.29 1066.17 679.16 1066.00 655.00 C 1065.83 630.84 1066.38 607.62 1066.00 583.00 C 1065.62 558.38 1066.83 535.36 1066.00 510.00 C 1065.17 484.64 1095.84 488.78 1104.25 505.75 C 1112.65 522.73 1124.99 533.33 1134.08 548.92 C 1143.17 564.51 1153.98 576.74 1163.25 591.75 C 1172.51 606.76 1183.19 619.64 1192.70 634.30 C 1202.21 648.97 1212.51 663.35 1222.08 677.92 C 1231.65 692.48 1242.13 705.75 1251.70 720.30 C 1261.26 734.86 1271.28 749.46 1281.23 763.77 C 1291.18 778.08 1300.29 792.48 1310.23 806.77 C 1320.17 821.06 1330.14 835.59 1340.23 849.77 C 1350.32 863.95 1358.56 878.96 1369.23 892.77 C 1379.90 906.58 1385.52 923.20 1402.31 931.70 C 1419.09 940.19 1442.97 939.85 1458.25 925.25 C 1473.53 910.65 1475.03 891.26 1474.00 869.00 C 1472.97 846.74 1474.47 819.28 1474.00 796.00 C 1473.53 772.72 1474.20 747.73 1474.00 724.00 C 1473.80 700.27 1474.08 674.88 1474.00 651.00 C 1473.92 627.12 1474.01 602.84 1474.00 579.00 C 1473.99 555.16 1473.95 530.68 1474.00 507.00 C 1474.05 483.32 1473.85 457.22 1474.00 434.00 C 1474.15 410.78 1473.65 384.08 1474.00 362.00 C 1474.35 339.92 1476.39 315.62 1463.30 299.70 C 1450.20 283.78 1431.61 276.12 1412.68 285.68 C 1393.75 295.24 1390.96 315.67 1391.00 337.00 C 1391.04 358.33 1390.98 386.12 1391.00 409.00 C 1391.02 431.88 1390.99 457.32 1391.00 481.00 C 1391.01 504.68 1390.99 529.87 1391.00 554.00 C 1391.01 578.13 1390.97 601.44 1391.00 626.00 C 1391.03 650.56 1390.94 673.77 1391.00 699.00 C 1391.06 724.23 1362.52 718.88 1353.75 702.25 C 1344.99 685.61 1333.11 674.63 1323.77 659.23 C 1314.43 643.83 1304.53 630.92 1294.75 616.25 C 1284.98 601.57 1275.20 587.94 1265.75 573.25 C 1256.30 558.56 1244.95 544.99 1235.75 530.25 C 1226.56 515.51 1215.90 502.16 1206.31 487.70 C 1196.71 473.23 1186.83 458.36 1176.92 444.08 C 1167.01 429.80 1157.45 415.62 1147.75 401.25 C 1138.06 386.87 1127.48 372.46 1117.92 358.08 C 1108.36 343.70 1098.02 329.63 1088.75 315.25 C 1079.49 300.86 1067.85 284.90 1050.00 282.00 Z"/>
</g>
<g fill="#7F00F0" fill-opacity="0.99" stroke="None">
<path d="
M 621.00 283.00 
C 592.45 278.92 561.81 284.81 533.00 283.00 C 504.19 281.19 474.83 283.70 446.00 283.00 C 417.17 282.30 386.62 283.09 358.00 283.00 C 329.38 282.91 299.04 282.51 271.00 283.00 C 242.96 283.49 209.74 281.64 183.00 283.00 C 156.26 284.36 124.24 276.96 102.75 289.75 C 81.25 302.53 76.33 330.04 91.75 350.25 C 107.17 370.45 138.30 366.39 164.00 366.00 C 189.70 365.61 223.82 366.43 251.00 366.00 C 278.18 365.57 311.69 366.74 339.00 366.00 C 366.31 365.26 399.82 367.58 426.00 366.00 C 452.18 364.42 471.37 381.96 473.00 406.00 C 474.63 430.04 452.08 443.38 439.25 460.25 C 426.43 477.12 412.62 491.52 399.25 507.25 C 385.88 522.98 372.01 539.08 358.75 554.75 C 345.50 570.42 331.30 585.68 318.30 601.30 C 305.30 616.91 291.21 632.00 277.75 647.75 C 264.30 663.51 251.03 679.79 237.25 695.25 C 223.46 710.71 210.81 726.22 197.25 742.25 C 183.68 758.28 169.53 772.82 156.25 789.25 C 142.97 805.67 129.56 818.76 115.77 835.77 C 101.98 852.78 84.51 866.13 83.00 890.00 C 81.49 913.87 99.33 936.13 124.00 937.00 C 148.67 937.87 162.14 918.88 176.23 902.23 C 190.32 885.58 202.97 870.89 216.75 854.75 C 230.53 838.61 243.78 824.28 257.25 808.25 C 270.71 792.21 284.03 777.82 297.75 761.75 C 311.47 745.67 324.66 729.96 338.25 714.25 C 351.83 698.54 365.39 683.65 378.75 667.75 C 392.12 651.86 406.22 636.34 419.70 620.70 C 433.17 605.05 446.17 589.34 459.75 573.75 C 473.34 558.16 486.64 542.89 500.23 527.23 C 513.82 511.57 527.25 495.58 540.75 479.75 C 554.25 463.92 567.98 449.44 581.25 433.25 C 594.52 417.06 608.92 402.37 622.08 386.08 C 635.24 369.80 653.59 356.09 656.67 333.67 C 659.75 311.25 644.36 286.34 621.00 283.00 Z"/>
</g>
<g fill="#7E00F0" fill-opacity="0.98" stroke="None">
<path d="
M 805.00 599.00 
C 756.71 594.33 722.67 650.26 745.23 690.77 C 767.79 731.28 824.85 733.96 851.08 696.08 C 877.31 658.20 850.90 603.44 805.00 599.00 Z"/>
</g>
</svg>