<svg xmlns="http://www.w3.org/2000/svg" xmlns:v="https://svgstorm.com"
viewBox = "0 0 2128 1203"
width="2128"
height="1203">
<g fill="None" fill-opacity="0.0" stroke="#000000" stroke-opacity="0.00" stroke-width="0.3"><path d="
M 0.00 1203.00 
L 2128.00 1203.00
L 2128.00 0.00
L 0.00 0.00
L 0.00 1203.00
M 2014.00 274.00 
C 2036.85 277.26 2056.92 297.25 2050.67 322.67 C 2044.42 348.09 2022.01 356.27 1997.00 356.00 C 1971.99 355.73 1934.86 355.51 1910.00 356.00 C 1885.14 356.49 1866.28 363.40 1853.23 385.23 C 1840.18 407.06 1842.02 434.01 1842.00 461.00 C 1841.98 487.99 1842.07 520.10 1842.00 548.00 C 1841.93 575.90 1842.16 605.78 1842.00 634.00 C 1841.84 662.22 1842.36 692.89 1842.00 721.00 C 1841.64 749.11 1842.79 780.58 1842.00 808.00 C 1841.21 835.42 1844.22 867.55 1841.00 893.00 C 1837.78 918.45 1814.33 932.88 1789.98 927.02 C 1765.62 921.17 1756.19 897.78 1758.00 872.00 C 1759.81 846.22 1757.22 813.41 1758.00 786.00 C 1758.78 758.59 1757.70 727.05 1758.00 699.00 C 1758.30 670.95 1757.97 640.06 1758.00 612.00 C 1758.03 583.94 1758.24 553.54 1758.00 526.00 C 1757.76 498.46 1758.66 465.20 1758.00 439.00 C 1757.34 412.80 1755.54 391.12 1737.23 372.77 C 1718.92 354.42 1693.66 355.67 1668.00 356.00 C 1642.34 356.33 1606.93 354.89 1581.00 356.00 C 1555.07 357.11 1535.25 341.37 1535.02 314.98 C 1534.79 288.59 1552.71 272.17 1580.00 274.00 C 1607.29 275.83 1638.83 273.04 1667.00 274.00 C 1695.17 274.96 1725.49 273.27 1754.00 274.00 C 1782.51 274.73 1811.37 273.01 1840.00 274.00 C 1868.63 274.99 1898.39 272.11 1927.00 274.00 C 1955.61 275.89 1985.67 269.95 2014.00 274.00
M 860.00 275.00 
C 890.40 279.34 906.15 320.00 889.75 343.75 C 873.34 367.49 855.63 382.86 838.25 404.25 C 820.87 425.64 804.45 443.69 787.08 464.08 C 769.71 484.48 752.61 503.87 735.23 524.23 C 717.85 544.59 701.22 564.08 683.75 583.75 C 666.29 603.43 649.69 624.64 632.23 644.23 C 614.77 663.82 598.36 684.52 580.75 703.75 C 563.13 722.97 547.28 745.64 528.75 763.75 C 510.22 781.87 492.07 818.26 521.25 836.75 C 550.42 855.25 589.48 843.96 624.00 846.00 C 658.52 848.04 700.24 845.88 735.00 846.00 C 769.76 846.12 813.59 847.66 847.00 846.00 C 880.41 844.34 907.35 872.97 891.23 905.23 C 875.11 937.49 836.17 928.32 803.00 929.00 C 769.83 929.68 727.16 928.68 692.00 929.00 C 656.84 929.32 615.77 928.83 580.00 929.00 C 544.23 929.17 504.46 928.88 469.00 929.00 C 433.54 929.12 391.75 929.28 357.99 928.01 C 324.24 926.74 313.32 881.94 328.31 859.31 C 343.29 836.67 364.09 820.45 380.25 799.25 C 396.41 778.05 414.97 760.27 431.75 739.75 C 448.53 719.23 466.39 699.82 483.75 679.75 C 501.11 659.68 517.33 639.48 534.75 619.75 C 552.18 600.03 569.75 579.54 586.75 559.75 C 603.75 539.96 621.04 520.53 638.25 500.25 C 655.46 479.96 672.83 460.53 690.25 440.25 C 707.67 419.97 723.94 400.79 741.75 380.75 C 759.56 360.72 775.17 340.39 793.25 320.25 C 811.34 300.12 828.49 270.50 860.00 275.00
M 1045.00 275.00 
C 1062.68 277.87 1073.85 294.61 1083.25 308.75 C 1092.66 322.88 1102.54 337.51 1112.25 351.75 C 1121.96 365.98 1132.21 380.76 1141.92 395.08 C 1151.63 409.40 1161.45 423.47 1171.25 437.75 C 1181.06 452.02 1190.62 466.24 1200.30 480.70 C 1209.98 495.15 1220.53 509.21 1230.25 523.75 C 1239.98 538.28 1249.25 552.15 1259.25 566.75 C 1269.26 581.34 1278.75 595.20 1288.92 610.08 C 1299.09 624.97 1307.84 637.31 1317.92 653.08 C 1328.01 668.85 1337.55 678.02 1347.25 695.75 C 1356.96 713.47 1386.71 714.08 1384.00 688.00 C 1381.29 661.92 1385.18 640.89 1384.00 616.00 C 1382.82 591.11 1384.49 567.22 1384.00 543.00 C 1383.51 518.78 1384.10 494.56 1384.00 471.00 C 1383.90 447.44 1383.77 421.61 1384.00 399.00 C 1384.23 376.39 1383.30 346.67 1384.00 326.00 C 1384.70 305.33 1388.44 285.67 1407.08 277.08 C 1425.72 268.48 1447.16 277.54 1458.75 294.25 C 1470.35 310.95 1468.20 334.95 1468.00 357.00 C 1467.80 379.05 1468.08 405.79 1468.00 429.00 C 1467.92 452.21 1468.02 478.30 1468.00 502.00 C 1467.98 525.70 1467.97 550.12 1468.00 574.00 C 1468.03 597.88 1467.90 623.14 1468.00 647.00 C 1468.10 670.86 1467.76 695.37 1468.00 719.00 C 1468.24 742.63 1467.47 767.83 1468.00 791.00 C 1468.53 814.17 1466.83 841.94 1468.00 864.00 C 1469.17 886.06 1465.93 904.73 1450.75 918.75 C 1435.58 932.77 1409.72 932.35 1393.77 923.23 C 1377.82 914.10 1371.98 897.32 1361.25 883.75 C 1350.52 870.18 1342.73 854.60 1332.25 840.75 C 1321.76 826.91 1312.81 811.41 1302.75 797.25 C 1292.69 783.10 1283.21 768.98 1273.25 754.75 C 1263.29 740.53 1254.32 725.99 1244.23 711.77 C 1234.14 697.56 1224.54 682.73 1214.70 668.30 C 1204.86 653.87 1194.98 640.39 1185.23 625.77 C 1175.48 611.15 1165.32 597.27 1155.70 582.30 C 1146.07 567.33 1135.68 555.47 1126.25 539.75 C 1116.81 524.03 1106.41 514.17 1097.08 496.92 C 1087.75 479.67 1057.41 478.54 1059.00 504.00 C 1060.59 529.46 1058.30 551.35 1059.00 576.00 C 1059.70 600.65 1058.69 624.81 1059.00 649.00 C 1059.31 673.19 1058.88 697.28 1059.00 721.00 C 1059.12 744.72 1058.99 769.94 1059.00 793.00 C 1059.01 816.06 1059.10 844.29 1059.00 866.00 C 1058.90 887.71 1060.72 909.09 1043.75 922.75 C 1026.79 936.42 1004.97 929.44 990.75 915.25 C 976.53 901.06 974.84 880.07 976.00 858.00 C 977.16 835.93 975.48 809.22 976.00 786.00 C 976.52 762.78 975.77 736.71 976.00 713.00 C 976.23 689.29 975.91 664.90 976.00 641.00 C 976.09 617.10 975.98 591.90 976.00 568.00 C 976.02 544.10 976.04 519.72 976.00 496.00 C 975.96 472.28 976.12 447.36 976.00 424.00 C 975.88 400.64 976.28 373.48 976.00 351.00 C 975.72 328.52 974.16 307.53 987.77 290.77 C 1001.38 274.01 1024.33 271.64 1045.00 275.00
M 616.00 276.00 
C 639.64 279.38 654.02 306.59 649.67 328.67 C 645.32 350.75 627.23 363.43 614.08 380.08 C 600.94 396.73 586.95 410.58 573.75 426.75 C 560.55 442.93 546.25 457.91 532.75 473.75 C 519.25 489.59 506.34 505.00 492.75 520.75 C 479.16 536.50 465.77 551.63 452.25 567.25 C 438.72 582.86 425.26 599.17 411.70 614.70 C 398.13 630.22 384.75 645.70 371.25 661.25 C 357.74 676.80 344.65 692.81 331.23 708.23 C 317.81 723.65 304.10 738.61 290.70 754.70 C 277.29 770.79 263.31 785.67 249.75 801.75 C 236.19 817.83 223.40 832.30 209.75 848.75 C 196.09 865.19 182.96 877.74 169.25 895.25 C 155.54 912.76 140.25 931.11 115.00 929.00 C 89.75 926.89 74.57 903.75 77.00 880.00 C 79.43 856.25 97.23 843.74 110.75 826.75 C 124.27 809.76 138.29 796.25 151.75 779.75 C 165.21 763.25 178.40 748.81 191.75 732.75 C 205.10 716.70 219.05 702.45 232.25 686.25 C 245.45 670.04 259.14 655.71 272.75 639.75 C 286.36 623.79 299.50 607.82 313.25 592.25 C 327.00 576.67 339.73 561.05 353.25 545.25 C 366.77 529.44 380.45 514.98 393.75 498.75 C 407.05 482.53 421.13 468.14 434.25 451.25 C 447.38 434.37 468.91 420.87 466.00 396.00 C 463.09 371.13 442.69 356.59 416.00 359.00 C 389.31 361.41 355.52 357.76 328.00 359.00 C 300.48 360.24 268.26 358.13 241.00 359.00 C 213.74 359.87 179.84 357.92 154.00 359.00 C 128.16 360.08 99.43 361.24 84.75 341.25 C 70.06 321.27 74.96 293.05 97.25 281.25 C 119.53 269.44 152.24 277.86 179.00 276.00 C 205.76 274.14 237.94 276.69 266.00 276.00 C 294.06 275.31 325.40 276.02 354.00 276.00 C 382.60 275.98 412.24 275.33 441.00 276.00 C 469.76 276.67 499.23 274.20 528.00 276.00 C 556.77 277.80 587.48 271.93 616.00 276.00
M 801.00 592.00 
C 846.56 597.51 870.67 653.83 843.25 690.25 C 815.82 726.66 758.27 723.10 737.70 681.30 C 717.12 639.51 752.42 586.13 801.00 592.00 Z"/>
</g>
<g fill="None" fill-opacity="0.0" stroke="#FFFFFF" stroke-opacity="0.99" stroke-width="0.3"><path d="
M 2014.00 274.00 
C 1985.67 269.95 1955.61 275.89 1927.00 274.00 C 1898.39 272.11 1868.63 274.99 1840.00 274.00 C 1811.37 273.01 1782.51 274.73 1754.00 274.00 C 1725.49 273.27 1695.17 274.96 1667.00 274.00 C 1638.83 273.04 1607.29 275.83 1580.00 274.00 C 1552.71 272.17 1534.79 288.59 1535.02 314.98 C 1535.25 341.37 1555.07 357.11 1581.00 356.00 C 1606.93 354.89 1642.34 356.33 1668.00 356.00 C 1693.66 355.67 1718.92 354.42 1737.23 372.77 C 1755.54 391.12 1757.34 412.80 1758.00 439.00 C 1758.66 465.20 1757.76 498.46 1758.00 526.00 C 1758.24 553.54 1758.03 583.94 1758.00 612.00 C 1757.97 640.06 1758.30 670.95 1758.00 699.00 C 1757.70 727.05 1758.78 758.59 1758.00 786.00 C 1757.22 813.41 1759.81 846.22 1758.00 872.00 C 1756.19 897.78 1765.62 921.17 1789.98 927.02 C 1814.33 932.88 1837.78 918.45 1841.00 893.00 C 1844.22 867.55 1841.21 835.42 1842.00 808.00 C 1842.79 780.58 1841.64 749.11 1842.00 721.00 C 1842.36 692.89 1841.84 662.22 1842.00 634.00 C 1842.16 605.78 1841.93 575.90 1842.00 548.00 C 1842.07 520.10 1841.98 487.99 1842.00 461.00 C 1842.02 434.01 1840.18 407.06 1853.23 385.23 C 1866.28 363.40 1885.14 356.49 1910.00 356.00 C 1934.86 355.51 1971.99 355.73 1997.00 356.00 C 2022.01 356.27 2044.42 348.09 2050.67 322.67 C 2056.92 297.25 2036.85 277.26 2014.00 274.00 Z"/>
</g>
<g fill="None" fill-opacity="0.0" stroke="#FFFFFF" stroke-opacity="0.99" stroke-width="0.3"><path d="
M 860.00 275.00 
C 828.49 270.50 811.34 300.12 793.25 320.25 C 775.17 340.39 759.56 360.72 741.75 380.75 C 723.94 400.79 707.67 419.97 690.25 440.25 C 672.83 460.53 655.46 479.96 638.25 500.25 C 621.04 520.53 603.75 539.96 586.75 559.75 C 569.75 579.54 552.18 600.03 534.75 619.75 C 517.33 639.48 501.11 659.68 483.75 679.75 C 466.39 699.82 448.53 719.23 431.75 739.75 C 414.97 760.27 396.41 778.05 380.25 799.25 C 364.09 820.45 343.29 836.67 328.31 859.31 C 313.32 881.94 324.24 926.74 357.99 928.01 C 391.75 929.28 433.54 929.12 469.00 929.00 C 504.46 928.88 544.23 929.17 580.00 929.00 C 615.77 928.83 656.84 929.32 692.00 929.00 C 727.16 928.68 769.83 929.68 803.00 929.00 C 836.17 928.32 875.11 937.49 891.23 905.23 C 907.35 872.97 880.41 844.34 847.00 846.00 C 813.59 847.66 769.76 846.12 735.00 846.00 C 700.24 845.88 658.52 848.04 624.00 846.00 C 589.48 843.96 550.42 855.25 521.25 836.75 C 492.07 818.26 510.22 781.87 528.75 763.75 C 547.28 745.64 563.13 722.97 580.75 703.75 C 598.36 684.52 614.77 663.82 632.23 644.23 C 649.69 624.64 666.29 603.43 683.75 583.75 C 701.22 564.08 717.85 544.59 735.23 524.23 C 752.61 503.87 769.71 484.48 787.08 464.08 C 804.45 443.69 820.87 425.64 838.25 404.25 C 855.63 382.86 873.34 367.49 889.75 343.75 C 906.15 320.00 890.40 279.34 860.00 275.00 Z"/>
</g>
<g fill="None" fill-opacity="0.0" stroke="#FFFFFF" stroke-opacity="0.99" stroke-width="0.3"><path d="
M 1045.00 275.00 
C 1024.33 271.64 1001.38 274.01 987.77 290.77 C 974.16 307.53 975.72 328.52 976.00 351.00 C 976.28 373.48 975.88 400.64 976.00 424.00 C 976.12 447.36 975.96 472.28 976.00 496.00 C 976.04 519.72 976.02 544.10 976.00 568.00 C 975.98 591.90 976.09 617.10 976.00 641.00 C 975.91 664.90 976.23 689.29 976.00 713.00 C 975.77 736.71 976.52 762.78 976.00 786.00 C 975.48 809.22 977.16 835.93 976.00 858.00 C 974.84 880.07 976.53 901.06 990.75 915.25 C 1004.97 929.44 1026.79 936.42 1043.75 922.75 C 1060.72 909.09 1058.90 887.71 1059.00 866.00 C 1059.10 844.29 1059.01 816.06 1059.00 793.00 C 1058.99 769.94 1059.12 744.72 1059.00 721.00 C 1058.88 697.28 1059.31 673.19 1059.00 649.00 C 1058.69 624.81 1059.70 600.65 1059.00 576.00 C 1058.30 551.35 1060.59 529.46 1059.00 504.00 C 1057.41 478.54 1087.75 479.67 1097.08 496.92 C 1106.41 514.17 1116.81 524.03 1126.25 539.75 C 1135.68 555.47 1146.07 567.33 1155.70 582.30 C 1165.32 597.27 1175.48 611.15 1185.23 625.77 C 1194.98 640.39 1204.86 653.87 1214.70 668.30 C 1224.54 682.73 1234.14 697.56 1244.23 711.77 C 1254.32 725.99 1263.29 740.53 1273.25 754.75 C 1283.21 768.98 1292.69 783.10 1302.75 797.25 C 1312.81 811.41 1321.76 826.91 1332.25 840.75 C 1342.73 854.60 1350.52 870.18 1361.25 883.75 C 1371.98 897.32 1377.82 914.10 1393.77 923.23 C 1409.72 932.35 1435.58 932.77 1450.75 918.75 C 1465.93 904.73 1469.17 886.06 1468.00 864.00 C 1466.83 841.94 1468.53 814.17 1468.00 791.00 C 1467.47 767.83 1468.24 742.63 1468.00 719.00 C 1467.76 695.37 1468.10 670.86 1468.00 647.00 C 1467.90 623.14 1468.03 597.88 1468.00 574.00 C 1467.97 550.12 1467.98 525.70 1468.00 502.00 C 1468.02 478.30 1467.92 452.21 1468.00 429.00 C 1468.08 405.79 1467.80 379.05 1468.00 357.00 C 1468.20 334.95 1470.35 310.95 1458.75 294.25 C 1447.16 277.54 1425.72 268.48 1407.08 277.08 C 1388.44 285.67 1384.70 305.33 1384.00 326.00 C 1383.30 346.67 1384.23 376.39 1384.00 399.00 C 1383.77 421.61 1383.90 447.44 1384.00 471.00 C 1384.10 494.56 1383.51 518.78 1384.00 543.00 C 1384.49 567.22 1382.82 591.11 1384.00 616.00 C 1385.18 640.89 1381.29 661.92 1384.00 688.00 C 1386.71 714.08 1356.96 713.47 1347.25 695.75 C 1337.55 678.02 1328.01 668.85 1317.92 653.08 C 1307.84 637.31 1299.09 624.97 1288.92 610.08 C 1278.75 595.20 1269.26 581.34 1259.25 566.75 C 1249.25 552.15 1239.98 538.28 1230.25 523.75 C 1220.53 509.21 1209.98 495.15 1200.30 480.70 C 1190.62 466.24 1181.06 452.02 1171.25 437.75 C 1161.45 423.47 1151.63 409.40 1141.92 395.08 C 1132.21 380.76 1121.96 365.98 1112.25 351.75 C 1102.54 337.51 1092.66 322.88 1083.25 308.75 C 1073.85 294.61 1062.68 277.87 1045.00 275.00 Z"/>
</g>
<g fill="None" fill-opacity="0.0" stroke="#FFFFFF" stroke-opacity="0.99" stroke-width="0.3"><path d="
M 616.00 276.00 
C 587.48 271.93 556.77 277.80 528.00 276.00 C 499.23 274.20 469.76 276.67 441.00 276.00 C 412.24 275.33 382.60 275.98 354.00 276.00 C 325.40 276.02 294.06 275.31 266.00 276.00 C 237.94 276.69 205.76 274.14 179.00 276.00 C 152.24 277.86 119.53 269.44 97.25 281.25 C 74.96 293.05 70.06 321.27 84.75 341.25 C 99.43 361.24 128.16 360.08 154.00 359.00 C 179.84 357.92 213.74 359.87 241.00 359.00 C 268.26 358.13 300.48 360.24 328.00 359.00 C 355.52 357.76 389.31 361.41 416.00 359.00 C 442.69 356.59 463.09 371.13 466.00 396.00 C 468.91 420.87 447.38 434.37 434.25 451.25 C 421.13 468.14 407.05 482.53 393.75 498.75 C 380.45 514.98 366.77 529.44 353.25 545.25 C 339.73 561.05 327.00 576.67 313.25 592.25 C 299.50 607.82 286.36 623.79 272.75 639.75 C 259.14 655.71 245.45 670.04 232.25 686.25 C 219.05 702.45 205.10 716.70 191.75 732.75 C 178.40 748.81 165.21 763.25 151.75 779.75 C 138.29 796.25 124.27 809.76 110.75 826.75 C 97.23 843.74 79.43 856.25 77.00 880.00 C 74.57 903.75 89.75 926.89 115.00 929.00 C 140.25 931.11 155.54 912.76 169.25 895.25 C 182.96 877.74 196.09 865.19 209.75 848.75 C 223.40 832.30 236.19 817.83 249.75 801.75 C 263.31 785.67 277.29 770.79 290.70 754.70 C 304.10 738.61 317.81 723.65 331.23 708.23 C 344.65 692.81 357.74 676.80 371.25 661.25 C 384.75 645.70 398.13 630.22 411.70 614.70 C 425.26 599.17 438.72 582.86 452.25 567.25 C 465.77 551.63 479.16 536.50 492.75 520.75 C 506.34 505.00 519.25 489.59 532.75 473.75 C 546.25 457.91 560.55 442.93 573.75 426.75 C 586.95 410.58 600.94 396.73 614.08 380.08 C 627.23 363.43 645.32 350.75 649.67 328.67 C 654.02 306.59 639.64 279.38 616.00 276.00 Z"/>
</g>
<g fill="None" fill-opacity="0.0" stroke="#FFFFFF" stroke-opacity="0.98" stroke-width="0.3"><path d="
M 801.00 592.00 
C 752.42 586.13 717.12 639.51 737.70 681.30 C 758.27 723.10 815.82 726.66 843.25 690.25 C 870.67 653.83 846.56 597.51 801.00 592.00 Z"/>
</g>
<g fill="#000000" fill-opacity="0.00" stroke="None">
<path d="
M 0.00 1203.00 
L 2128.00 1203.00
L 2128.00 0.00
L 0.00 0.00
L 0.00 1203.00
M 2014.00 274.00 
C 2036.85 277.26 2056.92 297.25 2050.67 322.67 C 2044.42 348.09 2022.01 356.27 1997.00 356.00 C 1971.99 355.73 1934.86 355.51 1910.00 356.00 C 1885.14 356.49 1866.28 363.40 1853.23 385.23 C 1840.18 407.06 1842.02 434.01 1842.00 461.00 C 1841.98 487.99 1842.07 520.10 1842.00 548.00 C 1841.93 575.90 1842.16 605.78 1842.00 634.00 C 1841.84 662.22 1842.36 692.89 1842.00 721.00 C 1841.64 749.11 1842.79 780.58 1842.00 808.00 C 1841.21 835.42 1844.22 867.55 1841.00 893.00 C 1837.78 918.45 1814.33 932.88 1789.98 927.02 C 1765.62 921.17 1756.19 897.78 1758.00 872.00 C 1759.81 846.22 1757.22 813.41 1758.00 786.00 C 1758.78 758.59 1757.70 727.05 1758.00 699.00 C 1758.30 670.95 1757.97 640.06 1758.00 612.00 C 1758.03 583.94 1758.24 553.54 1758.00 526.00 C 1757.76 498.46 1758.66 465.20 1758.00 439.00 C 1757.34 412.80 1755.54 391.12 1737.23 372.77 C 1718.92 354.42 1693.66 355.67 1668.00 356.00 C 1642.34 356.33 1606.93 354.89 1581.00 356.00 C 1555.07 357.11 1535.25 341.37 1535.02 314.98 C 1534.79 288.59 1552.71 272.17 1580.00 274.00 C 1607.29 275.83 1638.83 273.04 1667.00 274.00 C 1695.17 274.96 1725.49 273.27 1754.00 274.00 C 1782.51 274.73 1811.37 273.01 1840.00 274.00 C 1868.63 274.99 1898.39 272.11 1927.00 274.00 C 1955.61 275.89 1985.67 269.95 2014.00 274.00
M 860.00 275.00 
C 890.40 279.34 906.15 320.00 889.75 343.75 C 873.34 367.49 855.63 382.86 838.25 404.25 C 820.87 425.64 804.45 443.69 787.08 464.08 C 769.71 484.48 752.61 503.87 735.23 524.23 C 717.85 544.59 701.22 564.08 683.75 583.75 C 666.29 603.43 649.69 624.64 632.23 644.23 C 614.77 663.82 598.36 684.52 580.75 703.75 C 563.13 722.97 547.28 745.64 528.75 763.75 C 510.22 781.87 492.07 818.26 521.25 836.75 C 550.42 855.25 589.48 843.96 624.00 846.00 C 658.52 848.04 700.24 845.88 735.00 846.00 C 769.76 846.12 813.59 847.66 847.00 846.00 C 880.41 844.34 907.35 872.97 891.23 905.23 C 875.11 937.49 836.17 928.32 803.00 929.00 C 769.83 929.68 727.16 928.68 692.00 929.00 C 656.84 929.32 615.77 928.83 580.00 929.00 C 544.23 929.17 504.46 928.88 469.00 929.00 C 433.54 929.12 391.75 929.28 357.99 928.01 C 324.24 926.74 313.32 881.94 328.31 859.31 C 343.29 836.67 364.09 820.45 380.25 799.25 C 396.41 778.05 414.97 760.27 431.75 739.75 C 448.53 719.23 466.39 699.82 483.75 679.75 C 501.11 659.68 517.33 639.48 534.75 619.75 C 552.18 600.03 569.75 579.54 586.75 559.75 C 603.75 539.96 621.04 520.53 638.25 500.25 C 655.46 479.96 672.83 460.53 690.25 440.25 C 707.67 419.97 723.94 400.79 741.75 380.75 C 759.56 360.72 775.17 340.39 793.25 320.25 C 811.34 300.12 828.49 270.50 860.00 275.00
M 1045.00 275.00 
C 1062.68 277.87 1073.85 294.61 1083.25 308.75 C 1092.66 322.88 1102.54 337.51 1112.25 351.75 C 1121.96 365.98 1132.21 380.76 1141.92 395.08 C 1151.63 409.40 1161.45 423.47 1171.25 437.75 C 1181.06 452.02 1190.62 466.24 1200.30 480.70 C 1209.98 495.15 1220.53 509.21 1230.25 523.75 C 1239.98 538.28 1249.25 552.15 1259.25 566.75 C 1269.26 581.34 1278.75 595.20 1288.92 610.08 C 1299.09 624.97 1307.84 637.31 1317.92 653.08 C 1328.01 668.85 1337.55 678.02 1347.25 695.75 C 1356.96 713.47 1386.71 714.08 1384.00 688.00 C 1381.29 661.92 1385.18 640.89 1384.00 616.00 C 1382.82 591.11 1384.49 567.22 1384.00 543.00 C 1383.51 518.78 1384.10 494.56 1384.00 471.00 C 1383.90 447.44 1383.77 421.61 1384.00 399.00 C 1384.23 376.39 1383.30 346.67 1384.00 326.00 C 1384.70 305.33 1388.44 285.67 1407.08 277.08 C 1425.72 268.48 1447.16 277.54 1458.75 294.25 C 1470.35 310.95 1468.20 334.95 1468.00 357.00 C 1467.80 379.05 1468.08 405.79 1468.00 429.00 C 1467.92 452.21 1468.02 478.30 1468.00 502.00 C 1467.98 525.70 1467.97 550.12 1468.00 574.00 C 1468.03 597.88 1467.90 623.14 1468.00 647.00 C 1468.10 670.86 1467.76 695.37 1468.00 719.00 C 1468.24 742.63 1467.47 767.83 1468.00 791.00 C 1468.53 814.17 1466.83 841.94 1468.00 864.00 C 1469.17 886.06 1465.93 904.73 1450.75 918.75 C 1435.58 932.77 1409.72 932.35 1393.77 923.23 C 1377.82 914.10 1371.98 897.32 1361.25 883.75 C 1350.52 870.18 1342.73 854.60 1332.25 840.75 C 1321.76 826.91 1312.81 811.41 1302.75 797.25 C 1292.69 783.10 1283.21 768.98 1273.25 754.75 C 1263.29 740.53 1254.32 725.99 1244.23 711.77 C 1234.14 697.56 1224.54 682.73 1214.70 668.30 C 1204.86 653.87 1194.98 640.39 1185.23 625.77 C 1175.48 611.15 1165.32 597.27 1155.70 582.30 C 1146.07 567.33 1135.68 555.47 1126.25 539.75 C 1116.81 524.03 1106.41 514.17 1097.08 496.92 C 1087.75 479.67 1057.41 478.54 1059.00 504.00 C 1060.59 529.46 1058.30 551.35 1059.00 576.00 C 1059.70 600.65 1058.69 624.81 1059.00 649.00 C 1059.31 673.19 1058.88 697.28 1059.00 721.00 C 1059.12 744.72 1058.99 769.94 1059.00 793.00 C 1059.01 816.06 1059.10 844.29 1059.00 866.00 C 1058.90 887.71 1060.72 909.09 1043.75 922.75 C 1026.79 936.42 1004.97 929.44 990.75 915.25 C 976.53 901.06 974.84 880.07 976.00 858.00 C 977.16 835.93 975.48 809.22 976.00 786.00 C 976.52 762.78 975.77 736.71 976.00 713.00 C 976.23 689.29 975.91 664.90 976.00 641.00 C 976.09 617.10 975.98 591.90 976.00 568.00 C 976.02 544.10 976.04 519.72 976.00 496.00 C 975.96 472.28 976.12 447.36 976.00 424.00 C 975.88 400.64 976.28 373.48 976.00 351.00 C 975.72 328.52 974.16 307.53 987.77 290.77 C 1001.38 274.01 1024.33 271.64 1045.00 275.00
M 616.00 276.00 
C 639.64 279.38 654.02 306.59 649.67 328.67 C 645.32 350.75 627.23 363.43 614.08 380.08 C 600.94 396.73 586.95 410.58 573.75 426.75 C 560.55 442.93 546.25 457.91 532.75 473.75 C 519.25 489.59 506.34 505.00 492.75 520.75 C 479.16 536.50 465.77 551.63 452.25 567.25 C 438.72 582.86 425.26 599.17 411.70 614.70 C 398.13 630.22 384.75 645.70 371.25 661.25 C 357.74 676.80 344.65 692.81 331.23 708.23 C 317.81 723.65 304.10 738.61 290.70 754.70 C 277.29 770.79 263.31 785.67 249.75 801.75 C 236.19 817.83 223.40 832.30 209.75 848.75 C 196.09 865.19 182.96 877.74 169.25 895.25 C 155.54 912.76 140.25 931.11 115.00 929.00 C 89.75 926.89 74.57 903.75 77.00 880.00 C 79.43 856.25 97.23 843.74 110.75 826.75 C 124.27 809.76 138.29 796.25 151.75 779.75 C 165.21 763.25 178.40 748.81 191.75 732.75 C 205.10 716.70 219.05 702.45 232.25 686.25 C 245.45 670.04 259.14 655.71 272.75 639.75 C 286.36 623.79 299.50 607.82 313.25 592.25 C 327.00 576.67 339.73 561.05 353.25 545.25 C 366.77 529.44 380.45 514.98 393.75 498.75 C 407.05 482.53 421.13 468.14 434.25 451.25 C 447.38 434.37 468.91 420.87 466.00 396.00 C 463.09 371.13 442.69 356.59 416.00 359.00 C 389.31 361.41 355.52 357.76 328.00 359.00 C 300.48 360.24 268.26 358.13 241.00 359.00 C 213.74 359.87 179.84 357.92 154.00 359.00 C 128.16 360.08 99.43 361.24 84.75 341.25 C 70.06 321.27 74.96 293.05 97.25 281.25 C 119.53 269.44 152.24 277.86 179.00 276.00 C 205.76 274.14 237.94 276.69 266.00 276.00 C 294.06 275.31 325.40 276.02 354.00 276.00 C 382.60 275.98 412.24 275.33 441.00 276.00 C 469.76 276.67 499.23 274.20 528.00 276.00 C 556.77 277.80 587.48 271.93 616.00 276.00
M 801.00 592.00 
C 846.56 597.51 870.67 653.83 843.25 690.25 C 815.82 726.66 758.27 723.10 737.70 681.30 C 717.12 639.51 752.42 586.13 801.00 592.00 Z"/>
</g>
<g fill="#FFFFFF" fill-opacity="0.99" stroke="None">
<path d="
M 2014.00 274.00 
C 1985.67 269.95 1955.61 275.89 1927.00 274.00 C 1898.39 272.11 1868.63 274.99 1840.00 274.00 C 1811.37 273.01 1782.51 274.73 1754.00 274.00 C 1725.49 273.27 1695.17 274.96 1667.00 274.00 C 1638.83 273.04 1607.29 275.83 1580.00 274.00 C 1552.71 272.17 1534.79 288.59 1535.02 314.98 C 1535.25 341.37 1555.07 357.11 1581.00 356.00 C 1606.93 354.89 1642.34 356.33 1668.00 356.00 C 1693.66 355.67 1718.92 354.42 1737.23 372.77 C 1755.54 391.12 1757.34 412.80 1758.00 439.00 C 1758.66 465.20 1757.76 498.46 1758.00 526.00 C 1758.24 553.54 1758.03 583.94 1758.00 612.00 C 1757.97 640.06 1758.30 670.95 1758.00 699.00 C 1757.70 727.05 1758.78 758.59 1758.00 786.00 C 1757.22 813.41 1759.81 846.22 1758.00 872.00 C 1756.19 897.78 1765.62 921.17 1789.98 927.02 C 1814.33 932.88 1837.78 918.45 1841.00 893.00 C 1844.22 867.55 1841.21 835.42 1842.00 808.00 C 1842.79 780.58 1841.64 749.11 1842.00 721.00 C 1842.36 692.89 1841.84 662.22 1842.00 634.00 C 1842.16 605.78 1841.93 575.90 1842.00 548.00 C 1842.07 520.10 1841.98 487.99 1842.00 461.00 C 1842.02 434.01 1840.18 407.06 1853.23 385.23 C 1866.28 363.40 1885.14 356.49 1910.00 356.00 C 1934.86 355.51 1971.99 355.73 1997.00 356.00 C 2022.01 356.27 2044.42 348.09 2050.67 322.67 C 2056.92 297.25 2036.85 277.26 2014.00 274.00 Z"/>
</g>
<g fill="#FFFFFF" fill-opacity="0.99" stroke="None">
<path d="
M 860.00 275.00 
C 828.49 270.50 811.34 300.12 793.25 320.25 C 775.17 340.39 759.56 360.72 741.75 380.75 C 723.94 400.79 707.67 419.97 690.25 440.25 C 672.83 460.53 655.46 479.96 638.25 500.25 C 621.04 520.53 603.75 539.96 586.75 559.75 C 569.75 579.54 552.18 600.03 534.75 619.75 C 517.33 639.48 501.11 659.68 483.75 679.75 C 466.39 699.82 448.53 719.23 431.75 739.75 C 414.97 760.27 396.41 778.05 380.25 799.25 C 364.09 820.45 343.29 836.67 328.31 859.31 C 313.32 881.94 324.24 926.74 357.99 928.01 C 391.75 929.28 433.54 929.12 469.00 929.00 C 504.46 928.88 544.23 929.17 580.00 929.00 C 615.77 928.83 656.84 929.32 692.00 929.00 C 727.16 928.68 769.83 929.68 803.00 929.00 C 836.17 928.32 875.11 937.49 891.23 905.23 C 907.35 872.97 880.41 844.34 847.00 846.00 C 813.59 847.66 769.76 846.12 735.00 846.00 C 700.24 845.88 658.52 848.04 624.00 846.00 C 589.48 843.96 550.42 855.25 521.25 836.75 C 492.07 818.26 510.22 781.87 528.75 763.75 C 547.28 745.64 563.13 722.97 580.75 703.75 C 598.36 684.52 614.77 663.82 632.23 644.23 C 649.69 624.64 666.29 603.43 683.75 583.75 C 701.22 564.08 717.85 544.59 735.23 524.23 C 752.61 503.87 769.71 484.48 787.08 464.08 C 804.45 443.69 820.87 425.64 838.25 404.25 C 855.63 382.86 873.34 367.49 889.75 343.75 C 906.15 320.00 890.40 279.34 860.00 275.00 Z"/>
</g>
<g fill="#FFFFFF" fill-opacity="0.99" stroke="None">
<path d="
M 1045.00 275.00 
C 1024.33 271.64 1001.38 274.01 987.77 290.77 C 974.16 307.53 975.72 328.52 976.00 351.00 C 976.28 373.48 975.88 400.64 976.00 424.00 C 976.12 447.36 975.96 472.28 976.00 496.00 C 976.04 519.72 976.02 544.10 976.00 568.00 C 975.98 591.90 976.09 617.10 976.00 641.00 C 975.91 664.90 976.23 689.29 976.00 713.00 C 975.77 736.71 976.52 762.78 976.00 786.00 C 975.48 809.22 977.16 835.93 976.00 858.00 C 974.84 880.07 976.53 901.06 990.75 915.25 C 1004.97 929.44 1026.79 936.42 1043.75 922.75 C 1060.72 909.09 1058.90 887.71 1059.00 866.00 C 1059.10 844.29 1059.01 816.06 1059.00 793.00 C 1058.99 769.94 1059.12 744.72 1059.00 721.00 C 1058.88 697.28 1059.31 673.19 1059.00 649.00 C 1058.69 624.81 1059.70 600.65 1059.00 576.00 C 1058.30 551.35 1060.59 529.46 1059.00 504.00 C 1057.41 478.54 1087.75 479.67 1097.08 496.92 C 1106.41 514.17 1116.81 524.03 1126.25 539.75 C 1135.68 555.47 1146.07 567.33 1155.70 582.30 C 1165.32 597.27 1175.48 611.15 1185.23 625.77 C 1194.98 640.39 1204.86 653.87 1214.70 668.30 C 1224.54 682.73 1234.14 697.56 1244.23 711.77 C 1254.32 725.99 1263.29 740.53 1273.25 754.75 C 1283.21 768.98 1292.69 783.10 1302.75 797.25 C 1312.81 811.41 1321.76 826.91 1332.25 840.75 C 1342.73 854.60 1350.52 870.18 1361.25 883.75 C 1371.98 897.32 1377.82 914.10 1393.77 923.23 C 1409.72 932.35 1435.58 932.77 1450.75 918.75 C 1465.93 904.73 1469.17 886.06 1468.00 864.00 C 1466.83 841.94 1468.53 814.17 1468.00 791.00 C 1467.47 767.83 1468.24 742.63 1468.00 719.00 C 1467.76 695.37 1468.10 670.86 1468.00 647.00 C 1467.90 623.14 1468.03 597.88 1468.00 574.00 C 1467.97 550.12 1467.98 525.70 1468.00 502.00 C 1468.02 478.30 1467.92 452.21 1468.00 429.00 C 1468.08 405.79 1467.80 379.05 1468.00 357.00 C 1468.20 334.95 1470.35 310.95 1458.75 294.25 C 1447.16 277.54 1425.72 268.48 1407.08 277.08 C 1388.44 285.67 1384.70 305.33 1384.00 326.00 C 1383.30 346.67 1384.23 376.39 1384.00 399.00 C 1383.77 421.61 1383.90 447.44 1384.00 471.00 C 1384.10 494.56 1383.51 518.78 1384.00 543.00 C 1384.49 567.22 1382.82 591.11 1384.00 616.00 C 1385.18 640.89 1381.29 661.92 1384.00 688.00 C 1386.71 714.08 1356.96 713.47 1347.25 695.75 C 1337.55 678.02 1328.01 668.85 1317.92 653.08 C 1307.84 637.31 1299.09 624.97 1288.92 610.08 C 1278.75 595.20 1269.26 581.34 1259.25 566.75 C 1249.25 552.15 1239.98 538.28 1230.25 523.75 C 1220.53 509.21 1209.98 495.15 1200.30 480.70 C 1190.62 466.24 1181.06 452.02 1171.25 437.75 C 1161.45 423.47 1151.63 409.40 1141.92 395.08 C 1132.21 380.76 1121.96 365.98 1112.25 351.75 C 1102.54 337.51 1092.66 322.88 1083.25 308.75 C 1073.85 294.61 1062.68 277.87 1045.00 275.00 Z"/>
</g>
<g fill="#FFFFFF" fill-opacity="0.99" stroke="None">
<path d="
M 616.00 276.00 
C 587.48 271.93 556.77 277.80 528.00 276.00 C 499.23 274.20 469.76 276.67 441.00 276.00 C 412.24 275.33 382.60 275.98 354.00 276.00 C 325.40 276.02 294.06 275.31 266.00 276.00 C 237.94 276.69 205.76 274.14 179.00 276.00 C 152.24 277.86 119.53 269.44 97.25 281.25 C 74.96 293.05 70.06 321.27 84.75 341.25 C 99.43 361.24 128.16 360.08 154.00 359.00 C 179.84 357.92 213.74 359.87 241.00 359.00 C 268.26 358.13 300.48 360.24 328.00 359.00 C 355.52 357.76 389.31 361.41 416.00 359.00 C 442.69 356.59 463.09 371.13 466.00 396.00 C 468.91 420.87 447.38 434.37 434.25 451.25 C 421.13 468.14 407.05 482.53 393.75 498.75 C 380.45 514.98 366.77 529.44 353.25 545.25 C 339.73 561.05 327.00 576.67 313.25 592.25 C 299.50 607.82 286.36 623.79 272.75 639.75 C 259.14 655.71 245.45 670.04 232.25 686.25 C 219.05 702.45 205.10 716.70 191.75 732.75 C 178.40 748.81 165.21 763.25 151.75 779.75 C 138.29 796.25 124.27 809.76 110.75 826.75 C 97.23 843.74 79.43 856.25 77.00 880.00 C 74.57 903.75 89.75 926.89 115.00 929.00 C 140.25 931.11 155.54 912.76 169.25 895.25 C 182.96 877.74 196.09 865.19 209.75 848.75 C 223.40 832.30 236.19 817.83 249.75 801.75 C 263.31 785.67 277.29 770.79 290.70 754.70 C 304.10 738.61 317.81 723.65 331.23 708.23 C 344.65 692.81 357.74 676.80 371.25 661.25 C 384.75 645.70 398.13 630.22 411.70 614.70 C 425.26 599.17 438.72 582.86 452.25 567.25 C 465.77 551.63 479.16 536.50 492.75 520.75 C 506.34 505.00 519.25 489.59 532.75 473.75 C 546.25 457.91 560.55 442.93 573.75 426.75 C 586.95 410.58 600.94 396.73 614.08 380.08 C 627.23 363.43 645.32 350.75 649.67 328.67 C 654.02 306.59 639.64 279.38 616.00 276.00 Z"/>
</g>
<g fill="#FFFFFF" fill-opacity="0.98" stroke="None">
<path d="
M 801.00 592.00 
C 752.42 586.13 717.12 639.51 737.70 681.30 C 758.27 723.10 815.82 726.66 843.25 690.25 C 870.67 653.83 846.56 597.51 801.00 592.00 Z"/>
</g>
</svg>