<?xml version="1.0" standalone="no"?>
<!DOCTYPE svg PUBLIC "-//W3C//DTD SVG 20010904//EN"
 "http://www.w3.org/TR/2001/REC-SVG-20010904/DTD/svg10.dtd">
<svg version="1.0" xmlns="http://www.w3.org/2000/svg"
 width="8170.000000pt" height="4622.000000pt" viewBox="0 0 8170.000000 4622.000000"
 preserveAspectRatio="xMidYMid meet">

<g transform="translate(0.000000,4622.000000) scale(0.100000,-0.100000)"
fill="#000000" stroke="none">
<path d="M60530 35379 c-616 -70 -1041 -382 -1211 -889 -61 -183 -89 -378 -89
-620 0 -503 139 -891 419 -1170 235 -234 537 -364 946 -410 57 -6 864 -10
2200 -10 1264 0 2190 -4 2310 -10 564 -28 954 -115 1320 -294 237 -116 411
-242 586 -422 390 -403 630 -987 713 -1734 8 -74 18 -155 22 -180 4 -25 10
-4032 13 -8905 6 -8209 8 -8867 23 -8960 110 -658 399 -1099 873 -1330 209
-102 415 -147 685 -148 188 -1 277 9 435 50 648 168 1088 745 1164 1527 8 76
11 2732 11 8775 0 5641 4 8725 10 8836 27 452 87 804 196 1137 293 899 903
1424 1845 1587 385 67 528 71 2535 71 1160 0 1787 4 1860 11 673 65 1209 400
1445 904 194 414 193 958 -2 1348 -172 341 -464 582 -882 726 -114 39 -225 67
-397 98 -90 17 -535 18 -8525 19 -4636 1 -8464 -2 -8505 -7z"/>
<path d="M39269 35345 c-786 -126 -1394 -783 -1503 -1623 -15 -113 -16 -1093
-16 -10915 0 -7321 3 -10821 10 -10882 56 -485 293 -950 638 -1250 320 -280
701 -426 1112 -427 389 -1 686 118 919 368 236 252 376 612 443 1134 9 73 13
1801 17 7580 l6 7485 23 79 c61 215 194 381 360 448 51 20 73 23 202 23 154
-1 249 -15 407 -61 110 -31 240 -93 274 -131 15 -15 2516 -3666 5559 -8113
3043 -4447 5552 -8110 5575 -8140 256 -334 655 -576 1074 -652 170 -31 563
-30 735 1 795 143 1395 835 1476 1701 8 82 10 3259 8 10910 l-3 10795 -23 125
c-135 714 -592 1269 -1220 1479 -190 63 -273 75 -522 75 -219 0 -228 -1 -342
-31 -216 -58 -379 -152 -539 -312 -253 -254 -407 -615 -486 -1141 -16 -108
-18 -567 -23 -7390 l-5 -7275 -22 -80 c-59 -210 -174 -365 -327 -440 -68 -34
-89 -39 -164 -43 -53 -2 -123 2 -180 12 -188 33 -450 135 -534 208 -21 19
-2344 3411 -5399 7883 -2949 4318 -5387 7884 -5417 7925 -81 108 -272 294
-382 372 -190 135 -424 238 -655 289 -94 21 -128 22 -545 25 -340 2 -465 0
-531 -11z"/>
<path d="M32775 35333 c-162 -25 -321 -69 -450 -125 -170 -74 -372 -215 -500
-349 -82 -86 127 157 -10595 -12264 -5817 -6740 -8272 -9590 -8321 -9663 -123
-183 -202 -383 -240 -600 -25 -146 -27 -572 -4 -722 36 -235 115 -434 253
-641 263 -392 688 -642 1175 -690 68 -6 3312 -8 9602 -6 8950 3 9505 4 9585
20 350 71 629 216 860 447 220 221 380 526 437 832 25 134 24 419 -1 553 -60
320 -207 598 -440 830 -225 225 -477 362 -803 437 l-98 23 -6080 6 c-4595 4
-6096 8 -6145 17 -114 21 -273 63 -348 93 -506 201 -863 627 -984 1176 -30
134 -32 443 -5 578 44 214 142 443 260 606 34 48 3271 3814 7192 8369 3922
4556 7158 8322 7192 8369 147 203 235 411 279 656 21 123 30 460 15 618 -27
282 -123 546 -284 774 -80 113 -257 291 -372 372 -104 73 -314 179 -429 216
-174 56 -255 67 -496 70 -124 2 -238 1 -255 -2z"/>
<path d="M4679 35310 c-625 -56 -1171 -486 -1368 -1077 -55 -166 -75 -297 -75
-493 0 -141 4 -197 22 -288 65 -324 204 -585 436 -817 249 -248 521 -388 881
-452 82 -14 662 -16 6170 -22 l6080 -7 97 -22 c318 -72 563 -206 789 -431 227
-228 361 -469 435 -787 26 -110 28 -135 29 -329 0 -184 -3 -223 -23 -314 -45
-198 -134 -405 -244 -563 -29 -42 -3189 -3721 -7023 -8174 -3834 -4454 -7056
-8197 -7160 -8319 -213 -248 -272 -330 -350 -490 -67 -136 -110 -266 -137
-415 -18 -98 -21 -155 -21 -380 0 -225 3 -282 21 -380 120 -663 652 -1184
1312 -1284 518 -79 1006 57 1372 381 96 85 -11 -37 1259 1433 8670 10038
17678 20481 17727 20553 197 285 282 586 282 997 0 345 -51 577 -181 830 -248
481 -729 801 -1279 850 -137 12 -18916 12 -19051 0z"/>
<path d="M30525 23160 c-563 -47 -1080 -286 -1480 -686 -297 -296 -521 -695
-620 -1104 -76 -318 -85 -680 -24 -996 88 -460 315 -889 643 -1218 375 -375
846 -605 1386 -677 137 -18 449 -16 595 5 261 37 484 105 720 220 568 278 996
766 1195 1364 84 252 120 476 120 747 0 526 -157 996 -476 1420 -315 421 -782
730 -1298 861 -219 56 -540 83 -761 64z"/>
</g>
</svg>
